<?xml version="1.0" encoding="UTF-8"?>
<svg xmlns="http://www.w3.org/2000/svg" xmlns:xlink="http://www.w3.org/1999/xlink" viewBox="0 0 44 44" width="44px" height="44px">
<g id="surface44528404">
<path style=" stroke:none;fill-rule:nonzero;fill:rgb(100%,100%,100%);fill-opacity:1;" d="M 20.53125 14.4375 C 17.171875 14.4375 14.4375 17.171875 14.4375 20.53125 C 14.4375 23.886719 17.171875 26.621094 20.53125 26.621094 C 21.980469 26.621094 23.316406 26.109375 24.363281 25.257812 L 28.488281 29.378906 C 28.644531 29.542969 28.878906 29.609375 29.101562 29.550781 C 29.320312 29.492188 29.492188 29.320312 29.550781 29.101562 C 29.609375 28.878906 29.542969 28.644531 29.378906 28.488281 L 25.257812 24.363281 C 26.109375 23.316406 26.621094 21.980469 26.621094 20.53125 C 26.621094 17.171875 23.886719 14.4375 20.53125 14.4375 Z M 20.53125 15.699219 C 23.207031 15.699219 25.359375 17.855469 25.359375 20.53125 C 25.359375 21.832031 24.847656 23.011719 24.011719 23.878906 C 23.960938 23.914062 23.914062 23.960938 23.878906 24.011719 C 23.011719 24.847656 21.832031 25.359375 20.53125 25.359375 C 17.855469 25.359375 15.699219 23.207031 15.699219 20.53125 C 15.699219 17.855469 17.855469 15.699219 20.53125 15.699219 Z M 20.53125 15.699219 "/>
</g>
</svg>
